<svg xmlns="http://www.w3.org/2000/svg" width="29.02" height="29.02" viewBox="0 0 29.02 29.02"><defs><style>.a{fill:#fff;}</style></defs><path class="a" d="M29.02,14.136A14.27,14.27,0,0,1,7.887,26.513L0,29.02l2.571-7.584a13.987,13.987,0,0,1-2.044-7.3,14.247,14.247,0,0,1,28.492,0ZM14.774,2.251A11.945,11.945,0,0,0,2.8,14.136,11.76,11.76,0,0,0,5.078,21.1l-1.5,4.414,4.6-1.463a11.989,11.989,0,0,0,18.567-9.918A11.946,11.946,0,0,0,14.774,2.251Zm7.194,15.14c-.088-.144-.321-.231-.669-.4s-2.067-1.012-2.386-1.127-.554-.173-.786.173-.9,1.127-1.106,1.358-.407.261-.757.087a9.558,9.558,0,0,1-2.808-1.72,10.446,10.446,0,0,1-1.943-2.4c-.2-.347-.021-.534.153-.706.157-.155.35-.4.524-.607a2.323,2.323,0,0,0,.349-.578.631.631,0,0,0-.029-.607c-.087-.173-.786-1.878-1.077-2.572s-.581-.578-.785-.578-.437-.029-.669-.029a1.289,1.289,0,0,0-.932.433,3.875,3.875,0,0,0-1.222,2.89A6.7,6.7,0,0,0,9.25,14.589c.174.231,2.415,3.843,5.965,5.231s3.55.924,4.191.866a3.532,3.532,0,0,0,2.358-1.647A2.889,2.889,0,0,0,21.967,17.392Z"/></svg>