<?xml version="1.0" encoding="utf-8"?>
<!-- Generator: Adobe Illustrator 16.0.0, SVG Export Plug-In . SVG Version: 6.00 Build 0)  -->
<!DOCTYPE svg PUBLIC "-//W3C//DTD SVG 1.1//EN" "http://www.w3.org/Graphics/SVG/1.1/DTD/svg11.dtd">
<svg version="1.1" id="Camada_1" xmlns="http://www.w3.org/2000/svg" xmlns:xlink="http://www.w3.org/1999/xlink" x="0px" y="0px"
	 viewBox="0 0 591.542 96.947" enable-background="new 0 0 591.542 96.947"
	 xml:space="preserve">
<g>
	<path fill="#ffffff" d="M0,96.836V1.206h69.98c4.647,0,8.879,0.526,12.693,1.579c3.815,1.052,7.081,2.61,9.8,4.669
		c2.718,2.063,4.823,4.649,6.315,7.761c1.489,3.114,2.236,6.688,2.236,10.721c0,3.071-0.353,5.745-1.052,8.024
		c-0.703,2.281-1.668,4.232-2.895,5.854c-1.229,1.624-2.652,2.981-4.274,4.078c-1.624,1.097-3.311,1.907-5.065,2.433
		c4.385,1.404,7.98,3.946,10.788,7.629c2.805,3.684,4.208,8.333,4.208,13.943c0,4.386-0.723,8.354-2.169,11.903
		c-1.447,3.553-3.509,6.601-6.182,9.144c-2.677,2.545-5.92,4.494-9.735,5.854c-3.815,1.361-8.046,2.038-12.694,2.038H0z
		 M28.808,55.27V41.195h41.304c4.736,0,8.242-0.875,10.523-2.63c2.279-1.753,3.42-4.736,3.42-8.946c0-2.542-0.483-4.582-1.446-6.116
		c-0.966-1.534-2.348-2.718-4.144-3.552c-1.799-0.833-3.947-1.381-6.447-1.644c-2.499-0.263-5.284-0.396-8.353-0.396h-46.96v62.352
		h48.407c2.98,0,5.743-0.218,8.287-0.658c2.542-0.437,4.735-1.161,6.578-2.17c1.841-1.008,3.266-2.302,4.275-3.88
		c1.007-1.58,1.513-3.553,1.513-5.92c0-3.946-1.229-6.992-3.683-9.142c-2.456-2.148-6.051-3.224-10.787-3.224H28.808z"/>
	<path fill="#ffffff" d="M206.125,96.837l-24.204-26.571h-35.78V55.534H186c6.051,0,10.609-1.645,13.68-4.934c3.068-3.288,4.604-8.044,4.604-14.272
		c0-6.226-1.602-10.852-4.801-13.876c-3.202-3.026-7.695-4.539-13.483-4.539h-52.091v78.925h-16.574V1.205H186
		c5.437,0,10.303,0.814,14.6,2.434c4.297,1.625,7.937,3.946,10.919,6.973c2.98,3.025,5.261,6.688,6.84,10.984
		c1.578,4.297,2.367,9.121,2.367,14.469c0,7.981-1.732,14.668-5.196,20.06c-3.465,5.395-8.309,9.273-14.535,11.643l28.808,29.07
		H206.125z"/>
	<path fill="#ffffff" d="M338.193,97.495l-14.339-24.072h-45.25l7.892-13.549h29.334l-21.31-35.779l-43.408,73.4h-19.075l54.984-91.553
		c0.965-1.666,2.105-2.981,3.421-3.946c1.315-0.965,2.893-1.448,4.735-1.448c1.843,0,3.397,0.483,4.67,1.448
		c1.271,0.965,2.389,2.281,3.354,3.946l55.115,91.553H338.193z"/>
	<path fill="#ffffff" d="M399.493,96.837c-6.665,0-12.826-1.25-18.482-3.748c-5.657-2.5-10.569-5.92-14.733-10.261
		c-4.166-4.341-7.411-9.491-9.734-15.457c-2.324-5.963-3.483-12.408-3.483-19.336c0-7.016,1.159-13.418,3.483-19.206
		c2.323-5.789,5.568-10.72,9.734-14.799c4.164-4.077,9.076-7.234,14.733-9.47c5.656-2.236,11.817-3.356,18.482-3.356h51.826v16.707
		h-51.826c-4.298,0-8.268,0.769-11.906,2.303c-3.639,1.534-6.775,3.663-9.403,6.378c-2.632,2.721-4.692,5.965-6.184,9.734
		c-1.493,3.772-2.236,7.938-2.236,12.497c0,4.472,0.743,8.638,2.236,12.496c1.491,3.861,3.552,7.17,6.184,9.933
		c2.628,2.762,5.765,4.933,9.403,6.512c3.639,1.577,7.608,2.367,11.906,2.367h51.826v16.705H399.493z"/>
	<path fill="#ffffff" d="M508.54,96.837c-6.665,0-12.826-1.25-18.482-3.748c-5.656-2.5-10.568-5.92-14.732-10.261
		c-4.165-4.341-7.411-9.491-9.734-15.457c-2.325-5.963-3.484-12.408-3.484-19.336c0-7.016,1.159-13.418,3.484-19.206
		c2.323-5.789,5.569-10.72,9.734-14.799c4.164-4.077,9.076-7.234,14.732-9.47c5.656-2.236,11.817-3.356,18.482-3.356h51.826v16.707
		H508.54c-4.298,0-8.267,0.769-11.905,2.303c-3.64,1.534-6.774,3.663-9.404,6.378c-2.632,2.721-4.692,5.965-6.184,9.734
		c-1.492,3.772-2.235,7.938-2.235,12.497c0,4.472,0.743,8.638,2.235,12.496c1.491,3.861,3.552,7.17,6.184,9.933
		c2.63,2.762,5.765,4.933,9.404,6.512c3.639,1.577,7.607,2.367,11.905,2.367h51.826v16.705H508.54z"/>
	<rect fill="#ffffff" x="574.835" y="1.205" width="16.707" height="95.632"/>
</g>
</svg>
