<svg xmlns="http://www.w3.org/2000/svg" width="40.857" height="40.858" viewBox="0 0 40.857 40.858"><defs><style>.a{fill:#c68260;}</style></defs><g transform="translate(-303.634 117.116)"><g transform="translate(303.634 -117.116)"><path class="a" d="M32.026,32.531A10.557,10.557,0,1,0,42.583,43.088,10.569,10.569,0,0,0,32.026,32.531Zm0,19.744a9.187,9.187,0,1,1,9.187-9.187A9.2,9.2,0,0,1,32.026,52.275Z" transform="translate(-14.065 -20.191)"/><path class="a" d="M21.285,34.265a1.919,1.919,0,1,0-1.357-.562A1.908,1.908,0,0,0,21.285,34.265ZM20.9,31.958a.549.549,0,1,1,.777.777.561.561,0,0,1-.777,0A.55.55,0,0,1,20.9,31.958Z" transform="translate(-12.922 -19.048)"/><path class="a" d="M63.335,72.479a1.919,1.919,0,1,0,1.357.562A1.908,1.908,0,0,0,63.335,72.479Zm.388,2.307a.562.562,0,0,1-.777,0,.55.55,0,1,1,.777,0Z" transform="translate(-35.776 -41.902)"/><path class="a" d="M21.285,72.479a1.918,1.918,0,1,0,1.356.562A1.909,1.909,0,0,0,21.285,72.479Zm.388,2.307a.562.562,0,0,1-.777,0,.55.55,0,1,1,.777,0Z" transform="translate(-12.922 -41.902)"/><path class="a" d="M46.108,28.4a22.923,22.923,0,0,0-22.9-22.9h-.685v4.954A17.958,17.958,0,1,0,41.154,29.081h4.953ZM23.9,14.044A14.388,14.388,0,0,1,37.564,27.712H36.218A13.043,13.043,0,0,0,23.9,15.39V14.044Zm-.685,30.944a16.59,16.59,0,0,1-.685-33.165v4.918h.685A11.668,11.668,0,0,1,34.866,28.4v.685h4.918A16.609,16.609,0,0,1,23.211,44.988ZM38.933,27.712A15.758,15.758,0,0,0,23.9,12.674V6.88A21.555,21.555,0,0,1,44.728,27.712Z" transform="translate(-5.25 -5.5)"/></g></g></svg>